<?xml version="1.0" encoding="utf-8"?>
<!-- Generator: Adobe Illustrator 21.0.0, SVG Export Plug-In . SVG Version: 6.00 Build 0)  -->
<svg version="1.1" baseProfile="basic" id="Layer_1"
	 xmlns="http://www.w3.org/2000/svg" xmlns:xlink="http://www.w3.org/1999/xlink" x="0px" y="0px" viewBox="0 0 100 100"
	 xml:space="preserve">
<path d="M88.4,79.7c-0.1-0.4-0.2-0.8-0.3-1.4c-0.1-0.6-0.3-1.3-0.4-2c-0.2-0.7-0.3-1.5-0.5-2.3l-1-4.2c-0.1-0.4-0.2-0.7-0.3-0.8
	c-0.1-0.1-0.2-0.2-0.4-0.1c-0.2,0-0.3,0.1-0.3,0.1c-0.9,0.8-1.7,1.4-2.5,2c-0.8,0.5-1.6,1-2.4,1.4c-0.8,0.4-1.8,0.8-2.8,1.1
	c-1,0.3-2.2,0.6-3.5,0.9c-1.7,0.4-3.3,0.3-4.7-0.2c-1.5-0.5-2.8-1.3-3.9-2.4c-1.2-1.1-2.1-2.5-3-4.2c-0.8-1.7-1.4-3.4-1.9-5.4
	c-0.5-2.2-0.6-4.3-0.4-6.2c0.2-2,0.7-3.8,1.5-5.4c0.8-1.6,1.9-2.9,3.3-4.1c1.4-1.1,3.1-1.9,5-2.3c1.5-0.3,2.8-0.4,4.2-0.3
	c1.3,0.2,2.6,0.4,3.7,0.7c1.1,0.3,2.1,0.7,3,1c0.9,0.3,1.6,0.5,2.1,0.5c0.3,0,0.6,0,0.8-0.1c0.4-0.1,0.6-0.2,0.6-0.4
	c0.1-0.2,0.1-0.4,0-0.5c-0.2-0.9-0.5-1.9-0.8-3.1c-0.3-1.2-0.7-2.3-1-3.5c-0.3-1.1-0.6-2.2-0.9-3.1c-0.3-0.9-0.4-1.6-0.5-1.9
	c0-0.2,0-0.2,0-0.3c-0.6-0.3-1.4-0.7-2.3-1c-0.9-0.3-2-0.5-3.2-0.7c-1.3-0.1-2.7-0.2-4.3-0.1c-1.6,0.1-3.5,0.4-5.5,0.8
	c-2.6,0.6-5,1.5-7.2,2.7c-2.2,1.2-4.2,2.6-5.9,4.3c-1.5,1.4-2.8,3-3.9,4.7c-0.4-0.7-0.8-1.3-1.4-2c-0.8-1-1.8-1.9-3-2.7
	c-1.2-0.9-2.7-1.7-4.5-2.4L30,33.2c-0.9-0.3-1.5-0.8-1.9-1.3c-0.3-0.5-0.6-1.2-0.8-2c-0.2-0.8-0.2-1.4,0.1-2c0.2-0.6,0.5-1,1-1.4
	c0.5-0.4,1-0.7,1.6-1c0.6-0.2,1.2-0.4,1.9-0.6c1.1-0.2,2.1-0.3,3-0.2c1,0.1,1.9,0.3,2.8,0.6c0.9,0.3,1.8,0.7,2.7,1.2
	c0.9,0.5,1.7,1,2.6,1.5c0.2,0.1,0.4,0.1,0.6,0.1c0.3-0.1,0.5-0.2,0.6-0.3c0.1-0.2,0.2-0.4,0.1-0.8c-0.6-2-1.1-4-1.6-5.8
	c-0.5-1.8-1-3.7-1.5-5.6c-0.1-0.4-0.3-0.7-0.5-0.8c-0.2-0.2-0.4-0.3-0.7-0.4c-0.9-0.3-1.8-0.6-2.9-0.7c-1-0.1-2-0.2-2.9-0.2
	c-0.9,0-1.8,0.1-2.6,0.2c-0.8,0.1-1.3,0.2-1.7,0.3c-3.1,0.7-5.8,1.7-8.1,3.1c-2.3,1.4-4.2,3-5.7,4.7c-1.5,1.8-2.5,3.7-3.1,5.8
	c-0.6,2.1-0.6,4.1-0.2,6.2c0.3,1.4,0.7,2.7,1.1,3.9c0.4,1.2,0.9,2.3,1.6,3.4c0.7,1.1,1.5,2,2.6,2.9c1,0.9,2.4,1.7,4,2.4
	c0.3,0.1,0.6,0.3,1.1,0.6c0.5,0.3,1.1,0.5,1.7,0.9c0.6,0.3,1.3,0.6,2,1c0.7,0.3,1.4,0.7,2,1c0.6,0.3,1.2,0.6,1.7,0.8
	c0.5,0.2,0.9,0.4,1.1,0.5c0.6,0.3,1.2,0.6,1.6,1.1c0.5,0.5,0.8,1,0.9,1.7c0.1,0.6,0.1,1.2-0.2,1.6c-0.3,0.5-0.7,0.9-1.2,1.3
	c-0.5,0.4-1.1,0.7-1.7,0.9c-0.6,0.2-1.2,0.4-1.7,0.5c-1.8,0.4-3.6,0.4-5.3,0.1c-1.7-0.4-3.3-1-4.9-1.9c-0.3-0.2-0.6-0.2-0.8-0.2
	c-0.4,0.1-0.6,0.3-0.5,0.7c0,0,0,0,0,0.1c0,0,0,0,0,0.1l3.4,12.4c1,0.4,2.1,0.6,3.1,0.7c1.1,0.1,2.1,0.1,3.2,0
	c1.1-0.1,2.2-0.2,3.3-0.5c1.1-0.2,2.3-0.5,3.4-0.7c1.5-0.3,2.9-0.9,4.4-1.6c1.5-0.7,2.8-1.6,4.1-2.6c0.4-0.3,0.8-0.7,1.2-1.1
	c0.1,0.9,0.3,1.8,0.5,2.7c0.9,3.8,2.2,7.1,4.2,10c1.9,2.9,4.2,5.2,6.8,7c2.6,1.8,5.5,3,8.7,3.6s6.4,0.5,9.7-0.2
	c1.2-0.3,2.5-0.6,3.8-1c1.3-0.4,2.6-0.8,3.8-1.4c1.2-0.5,2.4-1.2,3.6-1.9c1.1-0.7,2.2-1.5,3.1-2.5C88.5,80.3,88.4,80.1,88.4,79.7z"
	/>
<g>
	<path d="M88.3,98l-75.8,0c-5.2,0-9.5-4.3-9.5-9.5V12.7c0-5.2,4.3-9.5,9.5-9.5h75.8c5.2,0,9.5,4.3,9.5,9.5l0,75.8
		C97.9,93.7,93.6,98,88.3,98z M12.6,6.5c-3.4,0-6.3,2.8-6.3,6.3v75.8c0,3.5,2.8,6.3,6.3,6.3l75.8,0c3.4,0,6.3-2.8,6.3-6.3l0-75.8
		c0-3.5-2.8-6.3-6.3-6.3H12.6z"/>
</g>
</svg>
