<svg id="Layer_1" data-name="Layer 1" xmlns="http://www.w3.org/2000/svg" viewBox="0 0 75.96 73.99"><defs><style>.cls-1{fill:#231f20;}</style></defs><title>SC2</title><path class="cls-1" d="M88.36,79.72q-.11-.55-.29-1.43l-.41-2q-.23-1.11-.49-2.27l-1-4.22a2.35,2.35,0,0,0-.27-.77.34.34,0,0,0-.38-.12,1.06,1.06,0,0,0-.34.11,28.42,28.42,0,0,1-2.46,2,17.92,17.92,0,0,1-2.43,1.44,21.14,21.14,0,0,1-2.78,1.11Q76,74,74,74.47a8.54,8.54,0,0,1-4.72-.17,10.37,10.37,0,0,1-3.91-2.43,15,15,0,0,1-3-4.16,24,24,0,0,1-1.88-5.37,19.57,19.57,0,0,1-.45-6.24,15,15,0,0,1,1.49-5.35,12,12,0,0,1,8.29-6.39,12.35,12.35,0,0,1,4.18-.26,22.74,22.74,0,0,1,3.68.72q1.68.49,3,1a7.27,7.27,0,0,0,2.08.55,3.64,3.64,0,0,0,.8-.07q.56-.13.64-.42a1.06,1.06,0,0,0,0-.51q-.29-1.3-.78-3.06t-1-3.46q-.51-1.7-.92-3.09t-.53-1.92c0-.16,0-.25,0-.25a16.56,16.56,0,0,0-2.27-1,15.26,15.26,0,0,0-3.23-.7,25.93,25.93,0,0,0-4.31-.1,33.13,33.13,0,0,0-5.53.82,28.32,28.32,0,0,0-7.22,2.67,26.81,26.81,0,0,0-9.82,8.94,13.37,13.37,0,0,0-1.36-2,15.78,15.78,0,0,0-3-2.75,22.65,22.65,0,0,0-4.51-2.44L30,33.25a3.51,3.51,0,0,1-1.87-1.32,6.62,6.62,0,0,1-.77-2,3.3,3.3,0,0,1,1-3.42,5.57,5.57,0,0,1,1.59-1,11.82,11.82,0,0,1,1.87-.59,9.37,9.37,0,0,1,3-.21,12.16,12.16,0,0,1,2.83.64,17.37,17.37,0,0,1,2.68,1.23q1.31.74,2.57,1.53a.83.83,0,0,0,.65.08,1,1,0,0,0,.59-.34,1,1,0,0,0,.07-.85q-.88-3.06-1.61-5.8t-1.55-5.55a1.76,1.76,0,0,0-.5-.81,3.38,3.38,0,0,0-.74-.42,11.73,11.73,0,0,0-2.86-.69,22.44,22.44,0,0,0-2.94-.15q-1.42,0-2.57.16T29.85,14a27.89,27.89,0,0,0-8.1,3.11A21.83,21.83,0,0,0,16,21.86a15.22,15.22,0,0,0-3.08,5.78,12.66,12.66,0,0,0-.15,6.21q.47,2.08,1.06,3.89a14.58,14.58,0,0,0,1.62,3.39A12.86,12.86,0,0,0,18.07,44a17.06,17.06,0,0,0,4,2.39L23.2,47l1.69.86,2,1,2,1,1.7.8q.74.35,1.11.49a4.66,4.66,0,0,1,1.61,1.08,3.54,3.54,0,0,1,.91,1.72A2.14,2.14,0,0,1,34,55.56a4.53,4.53,0,0,1-1.21,1.29,7.74,7.74,0,0,1-1.68.93,10.65,10.65,0,0,1-1.65.54,12.41,12.41,0,0,1-5.31.09,15.78,15.78,0,0,1-4.87-1.9,1.19,1.19,0,0,0-.78-.16.56.56,0,0,0-.5.74.15.15,0,0,0,0,.07.16.16,0,0,1,0,.07l3.44,12.43a12.59,12.59,0,0,0,3.11.68,19.24,19.24,0,0,0,3.22,0,30,30,0,0,0,3.32-.45q1.68-.32,3.41-.71a20.12,20.12,0,0,0,4.4-1.57A22.24,22.24,0,0,0,43,65c.43-.34.82-.72,1.22-1.08.12.91.27,1.82.48,2.73a29.19,29.19,0,0,0,4.18,10,25.25,25.25,0,0,0,6.84,7,23.16,23.16,0,0,0,8.7,3.57A23.63,23.63,0,0,0,74.18,87Q76,86.56,78,86a32.68,32.68,0,0,0,3.81-1.38,26.59,26.59,0,0,0,3.57-1.88,17.58,17.58,0,0,0,3.09-2.45A1.72,1.72,0,0,0,88.36,79.72Z" transform="translate(-12.48 -13.6)"/></svg>